# xmcd CD database file
#
# Track frame offsets:
#	150
#	16751
#	25653
#	36311
#	49352
#	66530
#	76937
#	96121
#
# Disc length: 1442 seconds
#
# Revision: 0
# Processed by: cddbd v1.5.2PL0 Copyright (c) Steve Scherf et al.
# Submitted via: CDex 1.75
#
DISCID=6005a008
DTITLE=Sun Ra - Angels and Demons at Play
DYEAR=1960
DGENRE=Jazz
TTITLE0=Tiny Pyramids
TTITLE1=Between Two Worlds
TTITLE2=Music from the World Tomorrow
TTITLE3=Angels and Demons at Play
TTITLE4=Urnack
TTITLE5=Medicine for a Nightmare
TTITLE6=A Call for All Demons
TTITLE7=Demons Lullaby
EXTD=YEAR: 1960
EXTT0=
EXTT1=
EXTT2=
EXTT3=
EXTT4=
EXTT5=
EXTT6=
EXTT7=
PLAYORDER=
